<svg id="Group_891" data-name="Group 891" xmlns="http://www.w3.org/2000/svg" xmlns:xlink="http://www.w3.org/1999/xlink" width="165.547" height="56.113" viewBox="0 0 165.547 56.113">
  <defs>
    <clipPath id="clip-path">
      <rect id="Rectangle_8" data-name="Rectangle 8" width="165.547" height="56.113" fill="none"/>
    </clipPath>
  </defs>
  <g id="Group_890" data-name="Group 890" clip-path="url(#clip-path)">
    <path id="Path_15442" data-name="Path 15442" d="M181.181,38.266a2.556,2.556,0,1,0-1.833-.749,2.491,2.491,0,0,0,1.833.749" transform="translate(-142.652 -26.441)" fill="#0c1444"/>
    <text id="SABACASH" transform="translate(34.678 51.914)" fill="#da0016" font-size="11" font-family="SegoeUI, Segoe UI"><tspan x="0" y="0" letter-spacing="0.03em">S</tspan><tspan y="0" letter-spacing="0.032em">A</tspan><tspan y="0" letter-spacing="0.028em">B</tspan><tspan y="0" letter-spacing="0.007em">A</tspan><tspan y="0" letter-spacing="0.042em">C</tspan><tspan y="0" letter-spacing="0.032em">A</tspan><tspan y="0" letter-spacing="0.031em">S</tspan><tspan y="0">H</tspan></text>
    <path id="Path_15443" data-name="Path 15443" d="M517.578,6.44V3.831a.227.227,0,0,0-.229-.225h-1.726a.229.229,0,0,1-.229-.24c.075-1.378.5-1.544,1.05-1.593h.009a.227.227,0,0,0,.2-.224V.226A.228.228,0,0,0,516.41,0a2.811,2.811,0,0,0-2.149.853,4.81,4.81,0,0,0-.71,3.053V6.44a.227.227,0,0,0,.229.226h3.569a.227.227,0,0,0,.229-.226" transform="translate(-410.185 0)" fill="#da0016"/>
    <path id="Path_15444" data-name="Path 15444" d="M526.606,240.1h11.17a2.733,2.733,0,0,1,.341-.292H526.606a.292.292,0,0,0,0,.585h10.923a2.82,2.82,0,0,1,.247-.292Z" transform="translate(-420.379 -191.54)" fill="#0c1444"/>
    <path id="Path_15445" data-name="Path 15445" d="M517.867,247.1h0a2.826,2.826,0,0,1,.077-.292H502.612a.292.292,0,0,0,0,.585h15.21c0-.041.005-.083.011-.124.008-.057.022-.112.034-.168" transform="translate(-401.214 -197.127)" fill="#0c1444"/>
    <path id="Path_15446" data-name="Path 15446" d="M526.969,254.087h0c-.017-.051-.034-.1-.047-.153s-.018-.093-.027-.139H513.909a.292.292,0,0,0,0,.585h13.172l0-.009a2.976,2.976,0,0,1-.108-.284" transform="translate(-410.237 -202.712)" fill="#0c1444"/>
    <path id="Path_15447" data-name="Path 15447" d="M526.606,261.082h11.531a2.7,2.7,0,0,1-.342-.292h-11.19a.292.292,0,0,0,0,.585h11.945a.285.285,0,0,0,.093-.019,2.557,2.557,0,0,1-.506-.273Z" transform="translate(-420.379 -208.299)" fill="#0c1444"/>
    <path id="Path_15448" data-name="Path 15448" d="M51.435,108.985A1.385,1.385,0,0,0,51,109.992V118.1a6.43,6.43,0,0,1-1.084,4.052q-1.084,1.369-4.182,1.368a10.482,10.482,0,0,1-2.633-.361,4.951,4.951,0,0,1-2.529-1.7v-9.4H37.935A1.5,1.5,0,0,0,36.49,113.5v6.763a2.9,2.9,0,0,1-.465,1.729,3.03,3.03,0,0,1-1.161.981,4.841,4.841,0,0,1-1.5.439,18.738,18.738,0,0,1-1.929.1,11.353,11.353,0,0,1-2.5-.232,8.813,8.813,0,0,1-1.729-.568,4.091,4.091,0,0,1-1.187-.8v-9.86H23.382a1.5,1.5,0,0,0-1.445,1.445v13.68a13.522,13.522,0,0,1-.31,2.942,5.785,5.785,0,0,1-1.081,2.426,5.7,5.7,0,0,1-2.3,1.652,9.872,9.872,0,0,1-3.794.62,32.226,32.226,0,0,1-3.588-.207A8.1,8.1,0,0,1,7.51,133.48a6.763,6.763,0,0,1-2.478-2.813,11.62,11.62,0,0,1-.955-5.189,28.523,28.523,0,0,1,.387-4.7,32.675,32.675,0,0,1,.748-3.562,1.939,1.939,0,0,0,.026-1.213,1.075,1.075,0,0,0-.749-.542q-.259-.1-2.633-.826-.362,1.084-.7,2.452t-.594,2.839Q.308,121.4.154,122.846A24.859,24.859,0,0,0,0,125.479a15.973,15.973,0,0,0,1.291,6.943,10.734,10.734,0,0,0,3.33,4.13,12.021,12.021,0,0,0,4.543,2.013,23.253,23.253,0,0,0,4.93.542A13.943,13.943,0,0,0,20.081,138a10.123,10.123,0,0,0,3.665-2.814,9.941,9.941,0,0,0,1.858-3.743,15.913,15.913,0,0,0,.516-3.9v-1.807A8.264,8.264,0,0,0,28.857,127a10.413,10.413,0,0,0,2.53.387h1.489a10.222,10.222,0,0,0,2.762-.516,8.982,8.982,0,0,0,1.91-.9,5.663,5.663,0,0,0,1.136-.929q.387-.438.542-.645a7.813,7.813,0,0,0,.645.7,7.372,7.372,0,0,0,1.317,1.007,9.418,9.418,0,0,0,1.962.9,7.975,7.975,0,0,0,2.581.387,13.588,13.588,0,0,0,4.62-.671,6.567,6.567,0,0,0,2.865-1.91,7.157,7.157,0,0,0,1.445-2.968,16.58,16.58,0,0,0,.413-3.846v-9.447H52.441a1.384,1.384,0,0,0-1.006.439" transform="translate(0.001 -86.698)" fill="#0c1444"/>
    <path id="Path_15449" data-name="Path 15449" d="M164.9,66.255a2.556,2.556,0,1,0-1.832-.749,2.491,2.491,0,0,0,1.832.749" transform="translate(-129.645 -48.796)" fill="#0c1444"/>
    <path id="Path_15450" data-name="Path 15450" d="M194.887,63.674a2.556,2.556,0,1,0,.749-1.832,2.49,2.49,0,0,0-.749,1.832" transform="translate(-155.661 -48.796)" fill="#0c1444"/>
    <path id="Path_15451" data-name="Path 15451" d="M334.544,62.537a8.737,8.737,0,0,0-3.588-2.452,15.022,15.022,0,0,0-5.369-.852h-4.543q12.44-9.447,12.493-9.5a1.072,1.072,0,0,0,.155-1.5l-2.116-2.271L314.282,59.388l1.6,2.684a2.83,2.83,0,0,0,.671.594,1.754,1.754,0,0,0,.878.181h6.763a13.217,13.217,0,0,1,4.724.7,6.534,6.534,0,0,1,2.736,1.858,6.309,6.309,0,0,1,1.291,2.685,14.506,14.506,0,0,1,.335,3.123v2.323H311.288a6.292,6.292,0,0,1-4.311-1.239,4.626,4.626,0,0,1-1.368-3.614V47.412a1.361,1.361,0,0,0-.439-1.033,1.427,1.427,0,0,0-1.007-.413h-2.581V67.08a19.16,19.16,0,0,0,.439,4.284,7.9,7.9,0,0,0,1.523,3.253,6.868,6.868,0,0,0,2.968,2.065,12.549,12.549,0,0,0,4.052.711V77.4h25.451a.963.963,0,0,0,.826-.439,1.974,1.974,0,0,0,.31-1.162V71.571a19.734,19.734,0,0,0-.619-5.137,9.861,9.861,0,0,0-1.988-3.9" transform="translate(-240.881 -36.714)" fill="#0c1444"/>
    <path id="Path_15452" data-name="Path 15452" d="M584.621,238.056a2.556,2.556,0,1,0,1.832.749,2.49,2.49,0,0,0-1.832-.749" transform="translate(-464.888 -190.141)" fill="#0c1444"/>
    <path id="Path_15453" data-name="Path 15453" d="M573.1,58.562a1.384,1.384,0,0,0-1.007.439,1.442,1.442,0,0,0-.439,1.058v8.053a6.429,6.429,0,0,1-1.084,4.052q-1.084,1.369-4.182,1.368a10.491,10.491,0,0,1-2.633-.361,4.95,4.95,0,0,1-2.529-1.7v-9.4h-2.633a1.5,1.5,0,0,0-1.445,1.446v6.763a2.9,2.9,0,0,1-.465,1.729,3.035,3.035,0,0,1-1.162.981,4.844,4.844,0,0,1-1.5.439,17.929,17.929,0,0,1-1.888.1,11.354,11.354,0,0,1-2.5-.232,8.806,8.806,0,0,1-1.729-.568,4.085,4.085,0,0,1-1.187-.8v-9.86h-2.581a1.386,1.386,0,0,0-1.007.439,1.563,1.563,0,0,0-.491,1.059v6.246a4.1,4.1,0,0,1-.877,2.71,3.146,3.146,0,0,1-2.769,1.006h-1.7a8.384,8.384,0,0,1-2.164-.232,8.7,8.7,0,0,1-1.755-.568,4.078,4.078,0,0,1-1.188-.8V58.562h-2.637a1.412,1.412,0,0,0-1.446,1.446v9.757a4.145,4.145,0,0,1-.878,2.71,3.711,3.711,0,0,1-2.99,1.058h-.749a6.961,6.961,0,0,1-4.535-1.239,4.626,4.626,0,0,1-1.368-3.614V47.412a1.362,1.362,0,0,0-.439-1.033,1.428,1.428,0,0,0-1.007-.413h-2.581V67.08a19.167,19.167,0,0,0,.439,4.284,7.9,7.9,0,0,0,1.523,3.253,6.867,6.867,0,0,0,2.968,2.065,14.053,14.053,0,0,0,4.276.711q.354.012.723.012h2.04a8.433,8.433,0,0,0,3.743-.749,4.929,4.929,0,0,0,2.142-1.781,4.635,4.635,0,0,0,1.394,1.187,11.264,11.264,0,0,0,1.678.775,5.782,5.782,0,0,0,1.339.439c.328.05.627.084.9.1.2.015.393.025.568.025h2.891a7.536,7.536,0,0,0,3.6-.749,4.944,4.944,0,0,0,2.116-1.781,6.629,6.629,0,0,0,1.42,1.161,9.076,9.076,0,0,0,1.652.8,8.919,8.919,0,0,0,1.678.439,9.494,9.494,0,0,0,1.445.129h1.449a10.226,10.226,0,0,0,2.762-.516,9,9,0,0,0,1.91-.9,5.662,5.662,0,0,0,1.136-.93q.387-.438.542-.645a7.769,7.769,0,0,0,.645.7,7.372,7.372,0,0,0,1.317,1.007,9.4,9.4,0,0,0,1.962.9,7.97,7.97,0,0,0,2.581.387,13.582,13.582,0,0,0,4.62-.671,6.568,6.568,0,0,0,2.865-1.91,7.161,7.161,0,0,0,1.445-2.968,16.569,16.569,0,0,0,.413-3.846V58.562Z" transform="translate(-410.185 -36.714)" fill="#da0016"/>
  </g>
</svg>
